<?xml version="1.0" standalone="no"?>
<!DOCTYPE svg PUBLIC "-//W3C//DTD SVG 20010904//EN"
 "http://www.w3.org/TR/2001/REC-SVG-20010904/DTD/svg10.dtd">
<svg version="1.0" xmlns="http://www.w3.org/2000/svg"
 width="1000.000000pt" height="1080.000000pt" viewBox="0 0 1000.000000 1080.000000"
 preserveAspectRatio="xMidYMid meet">

<g transform="translate(0.000000,1080.000000) scale(0.100000,-0.100000)"
fill="#000000" stroke="none">
<path d="M6105 10374 c-16 -2 -70 -9 -120 -15 -618 -75 -1210 -417 -1605 -928
-55 -71 -104 -124 -119 -130 -19 -7 -21 -10 -7 -10 12 -1 16 -6 12 -16 -8 -22
7 -18 22 5 15 24 49 26 82 3 24 -16 24 -16 11 0 -7 9 -27 21 -43 25 l-30 8 62
79 c86 109 286 312 395 399 314 254 677 427 1061 506 364 75 788 66 1143 -26
51 -14 95 -23 98 -21 11 11 -263 78 -417 102 -99 15 -476 29 -545 19z"/>
<path d="M5990 10115 c-174 -36 -328 -116 -455 -235 -94 -89 -165 -143 -268
-203 -180 -107 -253 -199 -279 -357 -9 -53 -22 -89 -44 -122 -39 -58 -49 -117
-30 -181 16 -53 92 -181 240 -402 l100 -150 1 -75 c0 -63 5 -83 30 -129 32
-58 101 -125 155 -149 19 -9 36 -17 38 -18 2 -1 9 -31 17 -67 17 -83 32 -112
86 -165 76 -75 294 -212 338 -212 8 0 -3 -11 -23 -25 -20 -13 -51 -39 -69 -57
-98 -98 -140 -124 -285 -177 -79 -29 -145 -51 -146 -49 -2 1 -22 80 -45 173
-119 480 -280 1013 -302 999 -5 -3 -6 2 -3 10 7 17 -70 179 -94 198 -18 15
-18 14 30 -61 15 -25 28 -50 28 -55 0 -15 -71 104 -76 127 -4 20 -153 196
-212 249 -21 19 -64 54 -95 77 -41 31 -57 50 -57 67 0 23 -25 44 -52 44 -7 0
-2 -6 12 -13 14 -7 27 -23 28 -36 l4 -23 -23 21 c-13 11 -27 21 -31 21 -5 0
-16 16 -24 35 -15 37 -15 37 -114 40 -30 1 -64 5 -75 8 -11 3 -27 6 -35 6 -12
1 -12 3 -2 10 11 7 11 9 -2 14 -9 4 -16 2 -16 -3 0 -5 -25 -9 -55 -9 -35 0
-55 5 -55 12 0 9 -2 9 -8 0 -4 -6 -24 -11 -45 -10 -45 1 -64 -13 -48 -40 6
-10 11 -13 11 -5 0 7 8 12 18 11 48 -4 83 1 76 14 -6 9 -4 9 8 -1 11 -9 18
-10 23 -2 10 16 25 12 19 -5 -5 -13 -2 -14 20 -5 18 6 25 6 21 0 -4 -6 5 -10
20 -10 20 0 26 -4 21 -16 -4 -10 -2 -13 7 -7 6 4 24 8 39 8 20 0 24 -3 16 -13
-8 -9 -7 -11 6 -6 18 7 97 -22 108 -39 5 -8 14 -5 29 8 22 20 22 20 15 -1 -4
-15 -2 -24 8 -27 11 -4 13 -1 9 11 -6 15 -3 14 15 -2 23 -20 29 -32 12 -21 -5
3 -10 4 -10 2 0 -2 25 -21 56 -41 116 -77 337 -317 319 -346 -4 -6 -1 -9 6 -8
6 2 31 -33 55 -77 98 -180 142 -343 151 -551 3 -77 2 -167 -2 -200 -8 -58 -9
-54 -50 186 -51 293 -59 326 -84 333 -17 4 -17 2 -5 -22 32 -63 119 -601 110
-676 -8 -66 -45 -184 -89 -282 -75 -166 -82 -274 -34 -533 14 -74 30 -172 36
-217 17 -133 39 -173 136 -243 45 -32 87 -66 94 -74 14 -17 -24 -117 -118
-304 -88 -176 -170 -293 -285 -407 -114 -113 -192 -159 -302 -178 -199 -34
-579 98 -900 314 l-72 48 -6 58 c-3 32 -15 173 -26 313 -11 140 -24 300 -29
355 -6 55 -17 188 -26 295 -9 107 -22 269 -29 360 -8 91 -14 143 -14 115 -1
-27 3 -108 8 -180 5 -71 19 -263 30 -425 11 -162 31 -423 44 -580 13 -157 22
-286 21 -288 -1 -1 -31 20 -66 47 -146 110 -304 269 -378 381 -44 64 -111 186
-111 200 0 6 12 10 26 10 39 0 85 55 127 152 47 109 57 156 50 232 -9 91 -9
264 1 422 l9 141 -32 56 c-40 70 -69 153 -85 242 -13 69 -13 69 -21 33 -11
-56 33 -210 81 -283 32 -49 35 -86 18 -280 -13 -149 -14 -204 -5 -257 6 -37
11 -85 11 -106 0 -78 -72 -264 -118 -305 -11 -10 -33 -22 -48 -26 -28 -7 -30
-13 -56 -132 -93 -422 -200 -996 -233 -1255 -38 -302 -39 -489 0 -547 22 -34
137 -117 260 -188 61 -34 112 -64 113 -65 2 -1 -45 -58 -105 -126 -60 -68
-146 -170 -192 -228 -46 -58 -87 -109 -91 -113 -22 -24 -372 92 -585 193 -64
31 -85 47 -107 81 -40 62 -38 118 12 257 53 148 133 442 425 1557 271 1034
372 1414 476 1790 134 480 181 624 149 458 -14 -77 -24 -308 -10 -243 6 25 17
99 25 165 80 612 380 998 840 1081 16 3 31 7 34 9 8 9 41 -17 35 -27 -4 -7 -2
-8 5 -4 9 6 9 11 0 22 -9 11 -7 14 15 14 14 0 26 -5 26 -12 0 -6 2 -9 5 -7 2
3 2 15 -2 27 -4 18 -12 21 -42 19 -20 -1 -42 -6 -49 -10 -11 -8 -95 -19 -132
-18 -8 0 -94 20 -190 45 -603 154 -1102 148 -1513 -19 -112 -45 -257 -123
-305 -163 -25 -21 -23 -21 15 3 333 200 736 288 1173 256 253 -18 539 -64 749
-121 l44 -12 -75 -32 c-260 -113 -452 -314 -563 -591 -68 -171 -193 -589 -374
-1250 -141 -518 -203 -755 -542 -2055 -125 -479 -185 -697 -236 -855 -62 -192
-63 -219 -13 -298 24 -38 42 -52 112 -85 131 -62 395 -158 488 -178 47 -10 87
-19 89 -20 2 -2 -19 -34 -46 -71 -58 -81 -164 -245 -187 -290 -9 -17 -20 -34
-25 -37 -13 -8 -240 213 -381 369 -306 341 -530 672 -729 1073 -231 469 -372
944 -438 1472 -26 208 -26 756 0 953 10 77 16 141 14 143 -2 3 -8 -19 -11 -48
-59 -430 -59 -801 0 -1208 144 -1009 635 -1947 1396 -2675 l129 -123 -51 -102
c-66 -131 -130 -289 -169 -415 -35 -114 -83 -334 -75 -347 13 -20 21 -3 33 69
43 254 170 585 333 866 79 137 240 367 257 367 9 0 86 -7 171 -15 251 -24 328
-52 498 -178 56 -42 102 -75 102 -72 0 11 -207 158 -262 186 -79 40 -192 65
-356 80 -75 6 -140 14 -144 18 -10 9 197 261 334 408 l48 52 168 -83 c92 -46
223 -109 292 -141 69 -32 126 -59 127 -60 1 0 7 -37 12 -80 l10 -80 -4 77 c-4
88 -14 84 98 34 32 -14 61 -26 65 -26 4 0 17 18 30 41 14 24 29 39 36 36 8 -3
67 -43 132 -89 230 -160 191 -143 328 -143 83 0 128 4 144 13 13 8 52 14 87
15 63 2 105 23 105 52 0 7 16 16 36 20 21 3 93 45 174 100 76 52 140 91 143
89 13 -13 180 95 284 183 l65 55 99 -98 c86 -86 99 -103 100 -134 1 -34 2 -34
8 -6 l6 29 115 -105 c63 -58 138 -132 166 -164 54 -63 168 -214 185 -246 10
-18 8 -19 -13 -14 -16 4 -14 1 8 -10 75 -39 289 -480 428 -883 119 -345 253
-856 310 -1182 l6 -37 128 49 c319 123 696 338 958 548 l101 81 7 118 c3 64 9
315 13 557 6 399 8 436 20 398 8 -24 19 -43 24 -43 5 0 17 16 27 35 l18 35 47
-30 c45 -28 67 -37 67 -25 0 3 -15 36 -34 73 l-34 68 22 37 c13 20 26 34 29
30 9 -9 30 39 281 666 308 766 298 737 297 836 -1 110 -30 274 -92 511 -28
109 -52 206 -51 214 0 8 23 76 51 152 140 377 238 818 272 1233 15 176 6 579
-16 734 -81 583 -280 1095 -597 1538 -44 62 -89 120 -101 130 -11 10 2 -11 30
-47 315 -405 550 -979 632 -1545 73 -500 34 -1053 -115 -1615 -34 -130 -147
-479 -164 -510 -10 -18 -2 -40 -81 209 -178 566 -413 1129 -554 1327 -49 68
-82 94 -120 94 -15 0 -176 43 -358 96 -253 74 -371 113 -493 167 -156 67 -162
71 -173 106 -14 48 -67 110 -108 127 l-33 14 0 83 c0 76 3 87 31 132 53 84 93
205 67 205 -8 0 -14 -13 -15 -32 -6 -78 -128 -265 -244 -373 -162 -151 -312
-213 -489 -203 -147 9 -307 81 -458 208 -79 66 -108 119 -123 227 -22 161 -38
216 -85 293 -75 126 -113 283 -129 541 -8 123 2 173 42 211 72 70 235 100 427
80 108 -11 119 -11 154 7 60 31 169 59 292 77 140 20 224 14 296 -21 60 -30
124 -95 124 -128 0 -50 60 -307 85 -367 26 -62 27 -70 22 -189 l-5 -124 28 69
c78 193 155 258 248 210 35 -18 85 -72 106 -113 61 -122 -67 -363 -193 -363
-20 0 -43 -5 -51 -10 -11 -7 -3 -10 29 -10 90 0 176 67 230 180 21 46 26 70
26 145 1 67 8 113 28 180 45 153 60 264 54 415 -11 300 -110 454 -327 509 -74
18 -75 19 -119 82 -25 35 -88 107 -140 160 -82 82 -111 103 -191 143 -52 25
-126 53 -165 61 -85 18 -218 18 -305 0z m315 -30 c179 -46 322 -154 460 -349
40 -55 58 -72 85 -79 79 -20 158 -49 176 -63 17 -13 15 -13 -19 0 -21 9 -73
23 -115 31 -42 9 -77 17 -78 18 -1 1 -29 43 -62 93 -159 238 -372 355 -622
341 -235 -14 -414 -99 -627 -298 -81 -76 -139 -120 -208 -160 -131 -73 -199
-129 -235 -191 -17 -29 -28 -42 -25 -28 24 87 104 169 257 259 59 35 148 100
199 145 141 126 178 153 272 202 166 86 388 118 542 79z m-1182 -792 c-7 -2
-19 -2 -25 0 -7 3 -2 5 12 5 14 0 19 -2 13 -5z m163 -12 c41 -19 61 -37 51
-48 -3 -2 -19 5 -36 17 -16 13 -51 29 -78 36 -46 12 -47 13 -13 13 19 0 54 -8
76 -18z m-311 -98 l-28 -28 23 33 c12 18 24 31 27 28 3 -2 -7 -17 -22 -33z
m-535 12 c7 -8 16 -12 21 -9 5 3 9 -1 9 -9 0 -19 -40 -29 -58 -15 -12 10 -11
14 5 26 16 12 16 13 -9 7 -18 -5 -28 -3 -28 4 0 16 46 13 60 -4z m780 -5 c17
-11 13 -12 -55 -10 -63 1 -136 -21 -180 -55 -19 -14 -35 -22 -35 -17 0 14 60
54 109 73 50 20 137 24 161 9z m-180 -655 c0 -5 -5 -3 -10 5 -5 8 -10 20 -10
25 0 6 5 3 10 -5 5 -8 10 -19 10 -25z m310 -39 c0 -15 36 -95 80 -176 28 -52
60 -184 48 -196 -10 -10 -62 23 -107 66 -52 51 -91 130 -91 188 0 61 39 150
61 136 5 -3 9 -11 9 -18z m-221 -216 c77 -244 256 -934 245 -951 -2 -4 -20
-13 -39 -19 -19 -6 -35 -16 -35 -22 0 -10 19 -8 65 7 18 5 22 -4 49 -122 16
-70 31 -138 33 -149 4 -16 -4 -27 -34 -44 -21 -13 -39 -24 -41 -26 -9 -6 124
-419 238 -739 33 -93 42 -131 161 -710 82 -401 259 -1302 259 -1321 0 -8 -9
-14 -19 -14 -11 0 -32 -11 -47 -24 -21 -18 -28 -32 -28 -61 0 -51 32 -78 88
-73 l40 3 33 -170 c19 -93 32 -186 31 -205 l-3 -35 -43 63 c-81 118 -188 237
-325 360 -75 68 -137 125 -137 127 0 2 -11 84 -25 182 -22 164 -23 183 -10
228 29 96 17 236 -60 694 -52 305 -111 612 -160 826 -19 83 -59 326 -90 540
-62 434 -78 538 -130 869 -32 207 -34 234 -24 290 19 98 17 375 -4 479 -10 48
-20 95 -24 105 -3 9 -4 15 0 12 3 -3 19 -48 36 -100z m1591 -432 l0 -102 -53
-50 c-42 -41 -95 -72 -270 -158 -120 -60 -222 -108 -226 -108 -5 0 -34 29 -65
64 -37 43 -56 73 -56 90 0 25 2 26 63 26 189 1 405 111 540 276 29 35 55 64
60 64 4 0 7 -46 7 -102z m87 -90 c36 -38 63 -98 63 -139 0 -15 -12 -85 -26
-156 -26 -128 -26 -128 -98 -232 -40 -58 -77 -106 -82 -108 -5 -2 -16 12 -23
29 -35 80 -170 178 -327 239 l-85 33 203 102 c219 110 274 149 308 219 12 25
25 45 29 45 4 0 21 -15 38 -32z m-1683 -302 c34 -222 35 -211 -16 -228 -54
-18 -91 -65 -121 -151 -29 -81 -37 -69 -37 58 0 99 18 177 63 275 19 41 45
108 57 148 12 40 24 72 25 70 2 -2 15 -79 29 -172z m896 164 c11 -7 12 -12 3
-21 -8 -8 -14 -6 -22 10 -12 22 -5 27 19 11z m21 -92 c47 -51 88 -98 92 -104
4 -7 -17 -26 -52 -48 -100 -61 -171 -157 -171 -230 0 -27 -16 -18 -60 35 l-43
50 5 139 c4 107 9 145 22 165 18 28 92 85 110 85 7 0 50 -42 97 -92z m344
-198 c55 -26 122 -67 149 -91 54 -47 106 -122 106 -151 0 -34 20 -18 81 65 33
45 65 86 70 91 8 9 -53 -237 -112 -449 -23 -82 -221 -586 -348 -885 -3 -8 -9
26 -12 75 l-5 90 -2 -112 c-2 -117 -15 -168 -40 -158 -12 4 -13 3 -3 -9 10
-12 10 -21 -2 -43 -8 -15 -25 -56 -38 -90 -13 -35 -26 -63 -30 -63 -34 0 -52
479 -39 1070 10 480 10 584 0 440 -22 -289 -32 -843 -21 -1089 6 -140 10 -255
9 -257 -5 -4 -269 900 -279 956 -18 101 -49 360 -49 408 l1 47 42 -47 c51 -57
67 -60 67 -15 0 95 67 186 190 259 l62 36 51 -14 c29 -9 97 -37 152 -64z
m-1225 -123 c0 -7 29 -210 65 -451 36 -242 64 -444 62 -450 -2 -6 -13 7 -24
29 -12 22 -41 55 -66 73 l-44 34 -12 146 c-15 192 -31 474 -31 556 0 53 3 65
18 69 29 8 32 7 32 -6z m-65 -297 c9 -151 19 -312 23 -357 4 -46 4 -83 -1 -83
-5 0 -21 13 -37 28 -35 35 -57 108 -71 232 -6 52 -14 113 -19 135 -15 62 -12
107 11 180 18 59 66 151 75 143 1 -2 10 -127 19 -278z m430 -235 c36 -164 64
-303 62 -309 -4 -12 -172 492 -182 544 -5 31 -3 37 22 51 15 9 29 15 30 14 1
0 32 -136 68 -300z m-2541 -312 c81 -159 322 -414 514 -543 21 -14 23 -31 47
-315 14 -165 36 -419 49 -565 14 -146 22 -267 20 -269 -3 -3 -29 7 -59 22
l-55 27 24 37 c32 49 42 155 27 283 -17 140 -36 201 -103 345 -64 135 -67 150
-56 250 14 120 -40 -146 -97 -473 -30 -178 -55 -327 -55 -333 0 -5 86 -52 190
-104 105 -52 190 -96 191 -98 4 -10 55 -573 52 -576 -9 -13 -578 269 -748 370
-148 88 -217 145 -234 194 -29 86 0 415 74 852 52 299 182 943 191 943 2 0 15
-21 28 -47z m2307 -125 c19 -38 31 -113 211 -1343 l51 -349 -29 -56 c-36 -70
-203 -238 -306 -308 -107 -73 -108 -73 -96 -20 22 96 -5 192 -73 258 l-38 36
27 16 c15 9 37 27 50 41 l23 24 -53 23 c-38 16 -53 19 -56 10 -2 -6 -18 -27
-35 -46 -44 -51 -65 -43 -106 38 -31 63 -34 66 -57 56 -13 -6 -22 -13 -20 -15
2 -3 13 0 24 6 17 9 21 7 26 -15 4 -14 4 -29 1 -34 -3 -5 -1 -11 5 -15 5 -3
10 -19 10 -35 0 -23 -6 -30 -31 -39 -18 -6 -46 -11 -62 -11 -28 0 -26 -2 24
-27 34 -18 55 -35 57 -48 2 -12 28 -35 69 -60 81 -49 97 -55 58 -21 l-30 25
35 1 c31 0 39 -6 63 -42 31 -49 37 -39 6 11 -15 24 -17 36 -9 41 6 4 -19 10
-57 12 -74 6 -123 24 -123 44 0 8 -12 21 -26 30 -22 15 -23 19 -10 26 11 6 25
3 44 -10 55 -38 102 -63 102 -55 0 4 -23 23 -50 42 -41 27 -48 36 -39 48 9 10
15 11 23 3 5 -5 17 -10 26 -10 16 0 64 -46 93 -90 10 -13 17 -20 17 -14 0 6
-7 19 -15 30 -25 33 -16 39 15 9 48 -46 70 -102 70 -176 0 -35 -6 -75 -13 -88
-6 -14 -72 -67 -146 -118 -101 -71 -137 -91 -147 -82 -10 8 -9 17 6 44 19 33
13 54 -11 40 -5 -4 -22 -2 -37 3 -15 6 -36 13 -47 17 -19 7 -19 7 3 16 12 4
22 13 22 19 0 14 -7 13 -62 -7 -39 -14 -53 -15 -87 -4 -23 6 -41 16 -41 21 0
13 46 24 67 16 9 -4 -5 12 -32 36 -31 27 -58 63 -75 101 -26 57 -26 58 -39 34
-16 -30 -54 -52 -76 -43 -19 7 -65 102 -65 135 0 22 -2 23 -12 9 -19 -24 -80
-58 -105 -58 -12 0 -27 8 -32 18 -9 15 -16 11 -63 -35 -62 -62 -57 -71 7 -12
41 38 46 40 65 26 20 -14 20 -15 -14 -44 -34 -31 -144 -88 -152 -80 -3 2 5 30
17 62 24 64 85 139 106 131 9 -4 13 4 13 28 0 18 7 39 15 46 22 18 101 -4 167
-46 29 -19 70 -37 90 -41 40 -6 53 -16 61 -48 3 -14 5 -11 6 10 1 25 3 27 15
15 7 -8 25 -46 40 -85 28 -74 46 -108 46 -88 0 6 -5 24 -10 39 -16 40 -6 39
24 -4 14 -21 26 -51 26 -67 0 -27 1 -28 14 -10 14 19 16 19 63 3 26 -9 68 -19
93 -22 50 -6 38 -1 -65 29 -46 13 -71 29 -107 65 -59 58 -60 70 -9 60 26 -5
57 -23 92 -53 29 -26 55 -44 58 -42 2 3 -19 27 -48 53 -50 45 -52 48 -32 59
17 11 19 10 15 -2 -4 -9 13 -24 51 -46 44 -25 62 -42 76 -73 22 -48 26 -31 5
19 l-15 35 57 1 57 2 -66 7 c-36 3 -81 12 -98 20 l-33 13 29 12 c24 11 33 10
63 -6 l35 -20 -29 26 c-21 20 -26 29 -17 38 8 8 11 8 11 0 0 -16 63 -63 91
-68 13 -3 47 -7 74 -10 46 -5 44 -3 -24 15 -82 22 -146 63 -137 87 4 9 -7 1
-23 -16 -53 -56 -86 -41 -118 54 l-13 40 6 -40 c12 -81 5 -95 -53 -95 -39 0
-80 17 -88 38 -5 15 29 77 66 118 19 21 19 21 -31 52 -28 18 -57 32 -65 32 -7
0 -23 25 -36 54 l-22 55 -26 -20 c-17 -14 -34 -18 -51 -14 -21 4 -22 3 -7 -5
22 -14 22 -56 -1 -101 l-18 -36 44 33 c24 19 55 34 69 34 22 0 24 -3 19 -27
-5 -23 -4 -25 4 -10 15 23 40 22 88 -6 l39 -22 -43 -49 c-39 -45 -46 -49 -66
-39 -13 6 -45 14 -72 17 -31 4 -69 18 -100 38 -54 34 -64 46 -83 93 -7 19 -12
24 -12 12 -1 -10 4 -27 9 -38 12 -21 4 -24 -38 -13 -14 4 -21 12 -18 20 3 8
-1 14 -8 14 -22 0 -66 40 -66 59 0 21 78 77 90 64 4 -4 13 -25 20 -47 8 -26
15 -34 20 -26 5 8 2 19 -6 28 -8 8 -13 19 -11 25 1 5 -8 21 -20 34 -29 28 -23
41 31 78 46 31 55 24 50 -43 -3 -44 0 -40 12 16 3 15 12 22 28 22 40 0 117
-28 142 -51 13 -12 26 -20 29 -18 2 3 -17 21 -44 41 -35 26 -53 49 -64 80 -9
24 -16 35 -16 25 -1 -16 -3 -16 -32 -2 -17 9 -33 14 -36 11 -3 -3 12 -12 34
-21 47 -19 82 -72 41 -61 -13 3 -38 6 -55 6 -29 0 -33 3 -33 25 l0 26 -22 -21
c-12 -11 -39 -28 -59 -37 -34 -15 -37 -19 -33 -49 4 -29 0 -36 -25 -49 -17 -8
-40 -15 -53 -15 -13 0 -18 -3 -12 -8 9 -5 26 -72 19 -72 -22 0 -107 35 -120
50 -10 11 -24 20 -31 20 -14 0 -41 45 -55 90 -5 17 -8 19 -8 7 -1 -10 6 -31
14 -47 l15 -30 -45 7 c-49 6 -75 -7 -75 -38 0 -11 -2 -19 -5 -19 -12 0 -165
81 -165 88 -1 4 -22 257 -49 562 -26 305 -46 557 -45 558 1 2 49 -25 106 -61
322 -202 658 -314 856 -286 123 17 253 96 367 221 115 127 249 353 335 565 37
91 44 93 81 21z m106 -450 c-3 -8 -6 -5 -6 6 -1 11 2 17 5 13 3 -3 4 -12 1
-19z m2482 -449 c83 -234 151 -432 151 -440 1 -30 -214 -778 -229 -798 -15
-20 -23 -7 -198 327 l-182 347 44 112 c78 195 181 567 236 852 9 46 14 59 19
45 4 -10 75 -211 159 -445z m-2415 116 c72 -395 106 -641 106 -766 0 -56 -2
-100 -5 -97 -5 5 -150 1033 -161 1138 -9 91 7 18 60 -275z m-1985 -200 c45
-121 67 -387 38 -458 -28 -65 -37 -66 -148 -12 -54 27 -99 52 -99 55 -1 3 23
147 52 320 l52 315 42 -82 c23 -45 52 -107 63 -138z m258 -679 l82 -43 3 41
c3 34 7 42 26 44 33 5 122 -25 148 -50 12 -11 48 -28 80 -38 32 -9 63 -25 68
-33 22 -35 -51 -128 -90 -113 -8 3 -30 38 -48 77 -21 45 -36 67 -41 59 -4 -7
-29 -22 -54 -34 -46 -21 -47 -23 -39 -54 5 -17 18 -37 31 -43 l22 -12 -22 25
c-13 13 -23 29 -23 36 0 10 89 78 94 70 1 -1 12 -29 25 -60 24 -61 22 -78 -10
-78 -16 0 -19 -7 -19 -50 0 -49 1 -50 26 -44 23 6 25 5 16 -12 -5 -11 -18 -37
-28 -59 -16 -35 -121 -224 -130 -234 -5 -5 -153 60 -160 70 -3 5 -14 111 -24
236 -11 126 -22 254 -25 286 -3 31 -2 57 2 57 4 0 45 -20 90 -44z m727 10 c3
-13 9 -31 12 -40 4 -11 1 -16 -10 -16 -10 0 -30 -7 -46 -15 l-29 -15 9 29 c4
16 5 32 2 36 -6 6 36 44 49 45 4 0 10 -11 13 -24z m403 -88 c-3 -8 -6 -5 -6 6
-1 11 2 17 5 13 3 -3 4 -12 1 -19z m712 -150 c12 -75 21 -145 21 -154 0 -13
-25 7 -80 61 l-79 79 34 37 c18 21 44 55 57 77 12 23 23 40 24 39 1 -1 12 -64
23 -139z m-1240 -69 c21 -45 17 -59 -19 -59 -22 0 -30 -7 -41 -31 -7 -18 -31
-55 -53 -83 -22 -28 -32 -45 -23 -37 12 9 17 10 17 2 0 -16 42 -113 46 -108 3
2 -2 19 -10 38 -24 57 -22 81 8 124 15 22 26 31 23 20 -3 -11 -8 -42 -11 -70
-8 -58 8 -42 18 20 4 22 9 53 13 70 l5 29 19 -36 c21 -41 16 -71 -25 -145 -17
-30 -20 -41 -9 -32 9 8 28 40 43 71 26 55 28 57 44 39 9 -10 14 -25 11 -33 -9
-22 140 -83 246 -102 105 -19 129 -26 129 -37 0 -14 -69 -22 -146 -16 -44 3
-112 19 -176 41 -56 19 -104 33 -106 31 -10 -10 15 -26 81 -51 90 -35 169 -54
225 -54 42 0 56 -13 26 -24 -49 -19 -239 11 -373 59 -47 16 -57 15 -48 -9 9
-24 76 -53 138 -60 32 -4 70 -11 85 -15 25 -7 19 -9 -38 -16 -126 -14 -151 -5
-321 112 -198 137 -190 128 -161 178 23 39 24 39 24 13 0 -37 19 -36 102 6
l68 34 9 -31 c8 -27 9 -20 10 41 1 40 6 82 12 93 10 19 12 20 29 4 17 -15 17
-20 3 -61 -20 -59 -10 -68 12 -11 14 37 21 44 38 41 l22 -5 -21 10 c-34 15
-55 51 -43 73 5 10 15 18 22 18 7 0 23 9 37 20 25 19 25 19 34 -3 5 -12 16
-38 25 -58z m157 -70 c18 -36 27 -74 31 -127 l6 -76 -29 21 c-16 12 -40 33
-53 47 -22 23 -23 29 -12 53 l12 27 19 -39 c22 -49 26 -33 5 25 -14 40 -21
120 -10 120 2 0 16 -23 31 -51z m-56 -144 c14 -16 10 -18 -14 -9 -9 3 -16 10
-16 15 0 14 16 11 30 -6z m210 -36 c76 -14 120 -29 120 -41 0 -14 -86 -5 -167
18 -40 11 -63 23 -63 32 0 10 7 12 27 7 15 -3 52 -11 83 -16z m3319 -329 c71
-38 163 -132 210 -214 l32 -55 -58 -106 -58 -105 -23 53 c-39 90 -133 171
-303 261 l-78 42 47 83 47 83 61 -5 c44 -3 79 -14 123 -37z m-103 -251 c33
-21 86 -65 117 -98 l57 -60 -44 -63 c-24 -35 -67 -109 -95 -165 l-52 -101 -37
10 c-128 35 -232 131 -263 242 -9 31 -3 48 57 178 36 79 68 146 71 150 5 9
104 -40 189 -93z"/>
<path d="M4420 9170 c0 -5 5 -10 11 -10 5 0 7 5 4 10 -3 6 -8 10 -11 10 -2 0
-4 -4 -4 -10z"/>
<path d="M6323 6940 c0 -36 2 -50 4 -32 2 17 2 47 0 65 -2 17 -4 3 -4 -33z"/>
<path d="M6314 6605 c0 -88 2 -123 3 -77 2 46 2 118 0 160 -1 42 -3 5 -3 -83z"/>
<path d="M6190 6575 c-6 -8 -10 -22 -7 -32 4 -14 5 -14 6 4 0 12 9 27 19 32 9
6 12 11 6 11 -6 0 -17 -7 -24 -15z"/>
<path d="M6243 6579 c9 -5 18 -20 18 -32 1 -18 2 -18 6 -4 5 20 -13 47 -31 47
-6 0 -3 -5 7 -11z"/>
<path d="M6218 6503 c7 -3 16 -2 19 1 4 3 -2 6 -13 5 -11 0 -14 -3 -6 -6z"/>
<path d="M6207 5739 c7 -7 15 -10 18 -7 3 3 -2 9 -12 12 -14 6 -15 5 -6 -5z"/>
<path d="M3401 5724 c0 -11 3 -14 6 -6 3 7 2 16 -1 19 -3 4 -6 -2 -5 -13z"/>
<path d="M5106 5968 c-4 -9 1 -33 12 -55 43 -85 72 -237 72 -380 0 -143 -43
-377 -85 -468 -7 -17 -22 -50 -33 -75 -19 -45 -115 -160 -133 -160 -5 0 -12 8
-15 18 -3 9 -9 24 -14 33 -6 12 6 27 56 64 35 27 64 50 64 52 0 7 -45 -20 -91
-53 -46 -33 -69 -42 -69 -26 0 4 14 13 31 19 28 11 31 16 27 47 -4 40 1 44
102 70 41 11 47 15 25 15 -16 0 -55 -8 -85 -19 -30 -10 -56 -18 -57 -16 -1 1
10 26 24 55 21 41 27 70 29 134 l3 82 -9 -71 c-9 -66 -45 -184 -57 -184 -3 0
-17 10 -33 23 l-27 23 33 65 c47 90 42 98 -9 13 -42 -70 -103 -141 -113 -131
-13 13 -5 66 16 107 12 24 50 74 84 109 40 42 50 57 29 43 -47 -33 -121 -119
-135 -158 -10 -28 -17 -34 -33 -30 -25 6 -65 -3 -65 -16 0 -5 9 -4 21 2 11 7
27 9 34 6 23 -9 47 -109 41 -174 -5 -55 -4 -54 8 13 14 81 38 123 74 132 21 5
32 -1 59 -31 48 -52 44 -87 -14 -101 -55 -13 -60 -20 -24 -35 52 -21 65 -43
58 -101 -4 -28 -13 -62 -22 -75 -13 -20 -8 -18 30 11 26 19 56 36 68 36 16 1
17 3 5 6 -9 2 -30 -3 -46 -11 -29 -15 -29 -15 -24 10 2 13 14 29 26 35 11 6
41 31 66 55 l45 43 0 -76 c0 -52 -4 -78 -12 -80 -14 -5 -18 -33 -5 -33 4 1 41
33 82 72 71 67 72 69 22 34 -28 -20 -54 -36 -57 -36 -3 0 -5 27 -5 60 0 40 8
82 26 127 133 349 146 694 36 935 -22 46 -31 59 -36 46z"/>
<path d="M4596 5255 c23 -77 19 -109 -15 -121 l-28 -11 5 44 c2 24 1 43 -4 41
-5 -1 -19 2 -32 6 l-23 8 26 36 27 37 -37 -39 -38 -39 32 -13 c37 -16 41 -50
13 -105 l-18 -36 45 34 c32 25 52 34 72 31 22 -3 25 -1 18 11 -4 9 -15 45 -24
81 -9 36 -20 69 -25 74 -5 5 -2 -13 6 -39z"/>
<path d="M4240 5256 c0 -2 18 -15 40 -30 36 -23 120 -118 120 -134 0 -4 -20
-6 -44 -4 -41 4 -45 6 -67 54 -13 27 -25 46 -26 41 -2 -5 5 -30 16 -54 l20
-44 -32 -6 c-18 -3 -35 -3 -39 0 -3 3 -11 40 -17 81 -13 85 -25 108 -20 38 3
-38 1 -48 -11 -48 -12 -1 -11 -3 3 -11 22 -13 22 -55 -2 -101 l-18 -37 46 35
c28 22 55 34 71 33 14 -1 33 1 42 5 9 4 41 1 70 -8 29 -8 54 -13 57 -11 2 3 0
5 -6 5 -5 0 -19 19 -29 42 -19 42 -68 93 -130 136 -31 21 -44 26 -44 18z"/>
<path d="M4395 5179 c-4 -6 -5 -12 -2 -15 2 -3 7 2 10 11 7 17 1 20 -8 4z"/>
<path d="M4055 5119 c-4 -6 -5 -12 -2 -15 2 -3 7 2 10 11 7 17 1 20 -8 4z"/>
<path d="M4050 5077 c0 -10 5 -28 11 -39 11 -20 9 -20 -25 -14 -41 8 -76 0
-76 -16 0 -7 6 -6 15 2 22 18 101 -4 167 -46 29 -19 70 -37 91 -41 21 -3 45
-15 54 -27 12 -16 14 -17 9 -3 -6 19 28 39 51 30 14 -6 8 -48 -11 -73 -10 -13
-9 -13 7 -1 16 12 22 13 39 2 21 -13 21 -12 -1 14 -20 26 -20 29 -5 46 9 10
32 27 50 38 l33 20 16 -50 c9 -27 20 -51 25 -54 5 -3 7 -12 3 -20 -4 -11 -1
-13 11 -9 25 10 31 -24 14 -73 -16 -44 -11 -55 13 -27 7 8 24 21 38 29 22 11
30 11 51 -1 39 -21 49 -16 13 6 -18 11 -33 26 -33 33 0 17 54 95 82 120 11 9
16 17 10 17 -8 0 -32 -25 -94 -100 -7 -8 -12 -24 -10 -35 2 -14 -8 -26 -29
-38 -27 -15 -31 -15 -25 -1 3 8 6 27 6 40 0 15 6 24 16 24 8 0 13 4 10 9 -3 5
-15 7 -25 4 -14 -4 -25 6 -45 39 -14 25 -29 58 -32 75 l-6 31 -46 -29 c-48
-31 -82 -37 -82 -16 0 8 -3 8 -9 -2 -7 -11 -24 -13 -69 -8 -85 7 -164 55 -191
117 -11 25 -20 37 -21 27z"/>
<path d="M4471 5031 c7 -10 30 -25 51 -32 32 -10 37 -16 33 -33 -5 -19 -5 -19
5 -3 14 22 32 22 72 -3 45 -27 59 -25 17 3 -18 12 -39 34 -46 47 -13 25 -13
25 -13 2 0 -19 -4 -22 -27 -16 -16 3 -45 17 -66 30 -33 21 -36 22 -26 5z"/>
<path d="M3952 4970 c0 -14 2 -19 5 -12 2 6 2 18 0 25 -3 6 -5 1 -5 -13z"/>
<path d="M4080 4898 c-31 -20 -54 -28 -74 -25 -23 3 -26 2 -14 -7 8 -6 17 -23
20 -37 l5 -26 -56 33 c-90 54 -84 39 8 -21 l84 -55 -39 -1 c-39 -1 -39 -1 -8
-8 17 -4 36 -11 42 -15 6 -3 13 -2 17 4 3 5 21 10 40 10 50 0 51 17 2 23 -28
4 -49 14 -65 32 -26 31 -24 35 33 75 l43 30 17 -50 c9 -27 20 -52 25 -55 5 -3
7 -11 4 -18 -5 -14 62 -22 70 -8 3 4 -5 6 -18 4 -18 -4 -28 3 -46 32 -12 20
-28 53 -34 74 l-11 37 -45 -28z"/>
<path d="M3880 4911 c41 -3 81 -10 87 -14 9 -6 11 -3 7 7 -5 13 -22 16 -88 14
l-81 -1 75 -6z"/>
<path d="M3826 4852 c11 -18 37 -50 58 -72 20 -22 35 -44 31 -50 -4 -6 5 -5
20 2 24 11 25 13 8 19 -11 4 -46 36 -78 71 -36 39 -51 51 -39 30z"/>
<path d="M4753 4820 c1 -30 8 -61 15 -68 20 -22 14 -32 -14 -22 -62 24 -100 0
-91 -58 4 -25 4 -25 6 4 2 50 20 58 87 40 32 -8 72 -25 88 -37 31 -22 31 -22
12 -1 -10 12 -27 24 -37 27 -11 4 -26 20 -35 37 -17 33 -14 47 6 23 13 -16 46
-20 54 -7 2 4 -7 8 -22 7 -23 0 -30 8 -49 55 l-22 55 2 -55z"/>
<path d="M4287 4829 c7 -7 15 -10 18 -7 3 3 -2 9 -12 12 -14 6 -15 5 -6 -5z"/>
<path d="M4042 4646 c-7 -16 -8 -26 -1 -26 12 0 22 25 17 41 -2 6 -9 0 -16
-15z"/>
<path d="M5037 4655 c-7 -18 -64 -20 -116 -5 -19 5 -37 8 -39 6 -2 -3 16 -10
40 -16 23 -7 51 -16 61 -21 11 -6 17 -6 17 1 0 5 9 10 20 10 19 0 38 25 27 36
-2 3 -7 -2 -10 -11z"/>
<path d="M4543 4638 c16 -7 26 -17 22 -26 -3 -10 1 -9 17 3 61 42 93 -2 92
-124 0 -42 3 -66 7 -55 4 10 8 35 8 54 1 37 43 110 63 110 6 0 8 3 5 7 -4 3
-16 -2 -26 -11 -11 -10 -24 -15 -29 -12 -6 4 -8 -3 -4 -16 3 -13 1 -19 -6 -15
-5 4 -13 24 -17 45 l-6 39 -54 1 c-30 0 -65 3 -77 6 -16 4 -14 2 5 -6z"/>
<path d="M4521 4544 c0 -11 3 -14 6 -6 3 7 2 16 -1 19 -3 4 -6 -2 -5 -13z"/>
<path d="M8235 9450 c10 -11 20 -20 23 -20 3 0 -3 9 -13 20 -10 11 -20 20 -23
20 -3 0 3 -9 13 -20z"/>
<path d="M3968 9293 c6 -2 18 -2 25 0 6 3 1 5 -13 5 -14 0 -19 -2 -12 -5z"/>
<path d="M4038 9293 c7 -3 16 -2 19 1 4 3 -2 6 -13 5 -11 0 -14 -3 -6 -6z"/>
<path d="M4285 9170 c-3 -5 -1 -10 4 -10 6 0 11 5 11 10 0 6 -2 10 -4 10 -3 0
-8 -4 -11 -10z"/>
<path d="M4068 9163 c7 -3 16 -2 19 1 4 3 -2 6 -13 5 -11 0 -14 -3 -6 -6z"/>
<path d="M3770 9140 c-18 -12 -2 -12 25 0 13 6 15 9 5 9 -8 0 -22 -4 -30 -9z"/>
<path d="M3840 9125 c7 -8 17 -15 22 -15 6 0 5 7 -2 15 -7 8 -17 15 -22 15 -6
0 -5 -7 2 -15z"/>
<path d="M4031 9125 c0 -12 -5 -26 -11 -33 -5 -7 -3 -6 6 2 9 7 14 22 11 32
-4 17 -5 17 -6 -1z"/>
<path d="M3751 9104 c0 -11 3 -14 6 -6 3 7 2 16 -1 19 -3 4 -6 -2 -5 -13z"/>
<path d="M4201 9100 c-13 -11 -19 -20 -14 -20 6 0 18 9 28 20 23 25 17 25 -14
0z"/>
<path d="M4290 9116 c0 -2 8 -10 18 -17 15 -13 16 -12 3 4 -13 16 -21 21 -21
13z"/>
<path d="M4152 9060 c0 -19 2 -27 5 -17 2 9 2 25 0 35 -3 9 -5 1 -5 -18z"/>
<path d="M4290 9064 c-17 -9 -20 -14 -9 -14 9 0 22 7 29 15 15 18 13 18 -20
-1z"/>
<path d="M4035 9050 c-3 -6 1 -7 9 -4 18 7 21 14 7 14 -6 0 -13 -4 -16 -10z"/>
<path d="M4330 9046 c0 -2 7 -7 16 -10 8 -3 12 -2 9 4 -6 10 -25 14 -25 6z"/>
<path d="M4426 9035 c-3 -9 -6 -22 -5 -28 0 -7 5 -1 10 12 5 13 8 26 5 28 -2
2 -6 -3 -10 -12z"/>
<path d="M3851 9024 c0 -11 9 -29 22 -40 22 -19 22 -19 6 1 -10 11 -19 29 -22
40 -4 19 -5 19 -6 -1z"/>
<path d="M4212 9024 c10 -10 20 -16 22 -13 3 3 -5 11 -17 18 -21 13 -21 12 -5
-5z"/>
<path d="M4491 9024 c0 -11 3 -14 6 -6 3 7 2 16 -1 19 -3 4 -6 -2 -5 -13z"/>
<path d="M4259 9013 c-13 -16 -12 -17 4 -4 9 7 17 15 17 17 0 8 -8 3 -21 -13z"/>
<path d="M4362 9000 c0 -14 2 -19 5 -12 2 6 2 18 0 25 -3 6 -5 1 -5 -13z"/>
<path d="M4381 8994 c0 -11 3 -14 6 -6 3 7 2 16 -1 19 -3 4 -6 -2 -5 -13z"/>
<path d="M3818 8973 c-2 -16 -1 -41 3 -58 4 -22 6 -14 7 28 1 61 -3 74 -10 30z"/>
<path d="M4006 8977 c3 -10 9 -15 12 -12 3 3 0 11 -7 18 -10 9 -11 8 -5 -6z"/>
<path d="M4530 8980 c0 -8 5 -22 10 -30 9 -13 10 -13 10 0 0 8 -5 22 -10 30
-9 13 -10 13 -10 0z"/>
<path d="M3990 8961 c0 -6 4 -13 10 -16 6 -3 7 1 4 9 -7 18 -14 21 -14 7z"/>
<path d="M4428 8963 c7 -3 16 -2 19 1 4 3 -2 6 -13 5 -11 0 -14 -3 -6 -6z"/>
<path d="M4463 8937 c1 -15 5 -27 10 -27 10 0 9 22 -2 39 -7 10 -9 7 -8 -12z"/>
<path d="M4097 8923 c-3 -5 5 -8 18 -8 13 0 21 3 18 8 -2 4 -10 7 -18 7 -8 0
-16 -3 -18 -7z"/>
<path d="M4250 8915 c-7 -8 -15 -13 -19 -11 -4 3 -27 0 -52 -6 -24 -5 -48 -11
-54 -12 -5 -1 -15 -5 -22 -9 -7 -4 -28 -8 -47 -9 -19 -1 -33 -5 -31 -9 5 -7
-38 -26 -92 -39 -31 -7 -46 2 -23 13 6 3 5 4 -2 3 -7 -1 -14 -12 -16 -24 -3
-20 -13 -26 -34 -24 -3 1 -8 -5 -11 -12 -4 -10 12 -6 51 11 134 60 284 102
366 104 63 2 70 13 10 18 -8 0 -12 6 -9 11 9 15 -1 12 -15 -5z"/>
<path d="M4610 8903 c8 -3 22 -11 30 -17 13 -10 13 -9 1 7 -7 9 -21 17 -30 16
-13 0 -14 -1 -1 -6z"/>
<path d="M4342 8894 c11 -10 98 -33 98 -25 0 4 -17 13 -39 19 -41 13 -68 16
-59 6z"/>
<path d="M4535 8890 c-3 -5 -1 -10 4 -10 6 0 11 5 11 10 0 6 -2 10 -4 10 -3 0
-8 -4 -11 -10z"/>
<path d="M3758 8873 c7 -3 16 -2 19 1 4 3 -2 6 -13 5 -11 0 -14 -3 -6 -6z"/>
<path d="M3836 8867 c3 -10 9 -15 12 -12 3 3 0 11 -7 18 -10 9 -11 8 -5 -6z"/>
<path d="M4467 8863 c-11 -10 13 -33 35 -33 11 0 29 -5 41 -12 20 -10 21 -10
8 5 -7 9 -27 23 -44 32 -35 17 -32 17 -40 8z"/>
<path d="M4587 8809 c7 -7 15 -10 18 -7 3 3 -2 9 -12 12 -14 6 -15 5 -6 -5z"/>
<path d="M4700 8790 c11 -11 20 -25 20 -30 0 -7 6 -8 17 -2 9 6 29 6 46 1 21
-6 27 -5 20 2 -6 6 -26 11 -44 11 -21 1 -39 8 -47 20 -7 10 -17 18 -23 18 -5
0 0 -9 11 -20z"/>
<path d="M4610 8786 c0 -7 52 -37 71 -41 28 -6 23 3 -13 25 -30 18 -58 26 -58
16z"/>
<path d="M3686 8744 c-9 -8 -16 -20 -16 -25 0 -5 -7 -9 -15 -9 -8 0 -15 6 -15
13 0 8 -3 9 -8 1 -4 -6 -14 -14 -22 -18 -8 -3 -5 -4 8 -2 12 2 22 0 22 -5 0
-20 38 -7 58 21 12 16 22 32 22 35 0 10 -19 5 -34 -11z"/>
<path d="M3726 8710 c-27 -15 -58 -39 -70 -51 -19 -21 -19 -22 -1 -8 11 8 23
18 26 22 3 5 10 9 15 9 13 1 101 58 89 57 -5 0 -32 -13 -59 -29z"/>
<path d="M4807 8721 c-3 -12 -1 -21 3 -21 14 0 19 15 11 29 -6 9 -10 7 -14 -8z"/>
<path d="M4710 8725 c0 -2 35 -39 79 -82 43 -43 92 -99 108 -124 26 -43 31
-45 48 -33 18 14 18 14 -2 14 -14 0 -23 8 -28 27 -3 15 -15 33 -26 41 -13 9
-18 20 -14 30 3 9 3 13 -1 9 -10 -9 -55 33 -48 45 3 5 2 7 -3 6 -5 -2 -29 14
-54 35 -43 35 -59 43 -59 32z"/>
<path d="M3584 8656 c6 -47 11 -53 31 -36 17 14 20 30 4 30 -5 0 -8 -4 -4 -9
3 -5 1 -12 -5 -16 -5 -3 -12 7 -16 22 -10 46 -14 50 -10 9z"/>
<path d="M6902 8614 c-26 -18 -52 -65 -52 -91 1 -10 12 3 26 29 16 32 33 50
50 54 14 4 26 5 28 3 10 -12 -25 -104 -50 -131 -23 -25 -25 -28 -7 -19 26 13
61 68 69 110 4 17 12 31 18 31 17 1 -26 30 -44 30 -8 0 -26 -7 -38 -16z"/>
<path d="M4264 8586 c-98 -31 -255 -144 -357 -257 -187 -205 -319 -525 -345
-836 l-7 -88 -37 61 c-43 70 -118 252 -125 304 -2 19 -11 51 -19 70 -8 19 -25
87 -38 150 -13 63 -24 106 -25 95 0 -11 13 -85 30 -165 17 -80 33 -161 36
-180 3 -19 9 -40 14 -46 5 -6 17 -35 28 -65 25 -74 94 -209 125 -246 14 -17
26 -37 26 -45 0 -37 64 -140 119 -191 141 -130 494 -255 643 -227 241 46 456
193 541 370 59 125 70 183 64 350 -8 225 -47 388 -131 552 -75 147 -179 265
-306 347 -95 61 -153 73 -236 47z m255 -211 c45 -15 111 -46 154 -75 66 -42
80 -57 106 -109 75 -147 116 -306 133 -506 10 -121 9 -151 -5 -219 -41 -199
-155 -344 -344 -440 -86 -43 -229 -86 -287 -86 -149 0 -472 129 -576 230 -95
93 -132 211 -110 358 36 256 111 469 223 637 44 67 59 81 152 137 166 102 375
129 554 73z"/>
<path d="M3517 8555 c3 -8 9 -12 14 -9 12 7 11 11 -5 17 -10 4 -13 1 -9 -8z"/>
<path d="M3476 8507 c3 -10 9 -15 12 -12 3 3 0 11 -7 18 -10 9 -11 8 -5 -6z"/>
<path d="M3437 8459 c7 -7 15 -10 18 -7 3 3 -2 9 -12 12 -14 6 -15 5 -6 -5z"/>
<path d="M4970 8446 c0 -2 8 -10 18 -17 15 -13 16 -12 3 4 -13 16 -21 21 -21
13z"/>
<path d="M3380 8346 c0 -2 8 -10 18 -17 15 -13 16 -12 3 4 -13 16 -21 21 -21
13z"/>
<path d="M3282 8290 c0 -14 2 -19 5 -12 2 6 2 18 0 25 -3 6 -5 1 -5 -13z"/>
<path d="M3362 8278 c7 -15 15 -23 17 -17 2 6 -4 18 -13 27 -15 15 -15 15 -4
-10z"/>
<path d="M3292 8205 c0 -16 2 -22 5 -12 2 9 2 23 0 30 -3 6 -5 -1 -5 -18z"/>
<path d="M7540 8199 c-14 -6 -34 -18 -45 -28 -11 -10 -36 -18 -56 -18 -111 -2
-174 -119 -104 -194 26 -27 271 -157 280 -147 6 7 75 190 85 229 27 99 -71
195 -160 158z m47 -29 c-20 -4 -49 -17 -62 -30 -14 -13 -27 -21 -30 -18 -3 3
8 17 25 32 23 18 42 26 68 25 l37 -1 -38 -8z m-155 -55 c-52 -16 -71 -31 -88
-70 -11 -25 -13 -26 -14 -9 0 26 35 73 64 84 11 5 35 9 51 9 27 0 26 -2 -13
-14z m-52 -90 c0 -18 11 -33 40 -53 34 -23 53 -52 34 -52 -10 0 -68 42 -81 58
-15 19 -17 72 -3 72 6 0 10 -11 10 -25z"/>
<path d="M3302 8135 c0 -16 2 -22 5 -12 2 9 2 23 0 30 -3 6 -5 -1 -5 -18z"/>
<path d="M3373 7955 c0 -44 2 -61 4 -37 2 23 2 59 0 80 -2 20 -4 1 -4 -43z"/>
<path d="M901 7664 c0 -11 3 -14 6 -6 3 7 2 16 -1 19 -3 4 -6 -2 -5 -13z"/>
<path d="M3393 7590 c0 -36 2 -50 4 -32 2 17 2 47 0 65 -2 17 -4 3 -4 -33z"/>
<path d="M891 7624 c0 -11 3 -14 6 -6 3 7 2 16 -1 19 -3 4 -6 -2 -5 -13z"/>
<path d="M881 7574 c0 -11 3 -14 6 -6 3 7 2 16 -1 19 -3 4 -6 -2 -5 -13z"/>
<path d="M872 7525 c0 -16 2 -22 5 -12 2 9 2 23 0 30 -3 6 -5 -1 -5 -18z"/>
<path d="M3403 7435 c0 -38 2 -53 4 -32 2 20 2 52 0 70 -2 17 -4 1 -4 -38z"/>
<path d="M862 7470 c0 -14 2 -19 5 -12 2 6 2 18 0 25 -3 6 -5 1 -5 -13z"/>
<path d="M2340 7265 c-7 -8 -23 -15 -37 -15 -56 0 -93 -54 -69 -101 9 -19 140
-96 167 -99 9 0 59 129 59 154 0 39 -37 76 -75 76 -18 0 -38 -7 -45 -15z m-60
-90 c0 -8 9 -19 20 -25 11 -6 20 -17 20 -26 0 -11 -4 -12 -19 -4 -45 24 -69
70 -36 70 8 0 15 -7 15 -15z"/>
<path d="M5632 4015 c0 -16 2 -22 5 -12 2 9 2 23 0 30 -3 6 -5 -1 -5 -18z"/>
<path d="M5642 3940 c0 -14 2 -19 5 -12 2 6 2 18 0 25 -3 6 -5 1 -5 -13z"/>
<path d="M3703 3805 c0 -27 2 -38 4 -22 2 15 2 37 0 50 -2 12 -4 0 -4 -28z"/>
<path d="M3713 3690 c0 -25 2 -35 4 -22 2 12 2 32 0 45 -2 12 -4 2 -4 -23z"/>
<path d="M5939 3629 c24 -11 46 -18 48 -15 4 4 -73 36 -85 35 -4 0 13 -9 37
-20z"/>
<path d="M3722 3580 c0 -19 2 -27 5 -17 2 9 2 25 0 35 -3 9 -5 1 -5 -18z"/>
<path d="M6010 3600 c8 -5 20 -10 25 -10 6 0 3 5 -5 10 -8 5 -19 10 -25 10 -5
0 -3 -5 5 -10z"/>
<path d="M3495 3530 c10 -11 20 -20 23 -20 3 0 -3 9 -13 20 -10 11 -20 20 -23
20 -3 0 3 -9 13 -20z"/>
<path d="M3540 3496 c0 -2 8 -10 18 -17 15 -13 16 -12 3 4 -13 16 -21 21 -21
13z"/>
<path d="M0 400 l0 -400 5000 0 5000 0 0 400 0 400 -5000 0 -5000 0 0 -400z
m334 57 c52 -148 43 -145 85 -27 30 86 41 106 58 108 21 3 21 0 -14 -95 -19
-54 -40 -113 -46 -131 -9 -27 -15 -32 -36 -30 -22 3 -29 16 -68 123 -24 65
-43 123 -43 127 0 4 8 8 18 8 12 0 25 -22 46 -83z m1109 72 c14 -6 30 -22 36
-36 15 -32 14 -33 -9 -33 -11 0 -20 4 -20 10 0 5 -11 17 -25 26 -34 22 -78 5
-73 -29 2 -17 15 -26 58 -40 61 -19 80 -38 80 -77 0 -76 -146 -95 -179 -24
-15 33 -14 34 8 34 10 0 21 -7 25 -15 16 -41 106 -38 106 4 0 25 -17 38 -64
46 -48 10 -76 36 -76 74 0 55 72 88 133 60z m627 -61 l0 -72 38 37 c21 20 46
37 57 37 16 0 14 -5 -13 -33 -18 -18 -32 -39 -32 -46 0 -7 16 -35 36 -62 35
-48 35 -49 12 -49 -16 0 -32 14 -53 45 -16 24 -33 41 -37 39 -4 -3 -8 -23 -8
-45 0 -32 -3 -39 -20 -39 -19 0 -20 7 -20 130 0 123 1 130 20 130 18 0 20 -7
20 -72z m-1152 24 c2 -14 11 -22 23 -22 10 0 19 -7 19 -15 0 -8 -9 -15 -20
-15 -18 0 -20 -7 -20 -65 0 -58 2 -65 20 -65 11 0 20 -7 20 -16 0 -11 -8 -14
-32 -12 l-33 3 -3 74 c-3 63 -6 74 -22 78 -26 7 -26 33 0 33 15 0 20 7 20 26
0 31 23 28 28 -4z m652 3 c0 -18 5 -25 20 -25 11 0 20 -7 20 -15 0 -8 -9 -15
-20 -15 -18 0 -20 -7 -20 -65 0 -58 2 -65 20 -65 11 0 20 -7 20 -16 0 -11 -8
-14 -32 -12 l-33 3 -3 74 c-3 63 -6 74 -22 78 -26 7 -26 33 0 33 15 0 20 7 20
25 0 16 6 25 15 25 9 0 15 -9 15 -25z m-945 -50 c14 -13 25 -36 25 -50 0 -24
-2 -25 -65 -25 -69 0 -82 -12 -49 -44 20 -20 43 -20 65 0 10 9 26 14 36 12 31
-6 -29 -58 -67 -58 -46 0 -90 47 -90 95 0 79 92 124 145 70z m189 4 c27 -22
35 -49 13 -49 -7 0 -20 9 -30 20 -34 40 -87 12 -87 -46 0 -58 52 -85 87 -44
20 23 43 26 43 6 0 -22 -49 -56 -82 -56 -19 0 -40 10 -59 29 -81 81 25 211
115 140z m317 -8 c21 -22 29 -39 29 -66 0 -48 -44 -95 -90 -95 -46 0 -90 47
-90 95 0 48 44 95 90 95 22 0 41 -9 61 -29z m99 19 c0 -7 6 -7 19 0 29 15 41
12 41 -10 0 -13 -7 -20 -18 -20 -31 0 -42 -22 -42 -87 0 -56 -2 -63 -20 -63
-19 0 -20 7 -20 95 0 88 1 95 20 95 11 0 20 -5 20 -10z m551 -19 c21 -22 29
-39 29 -66 0 -48 -44 -95 -90 -95 -46 0 -90 47 -90 95 0 48 44 95 90 95 22 0
41 -9 61 -29z m193 8 c27 -22 35 -49 13 -49 -7 0 -20 9 -30 20 -34 40 -87 12
-87 -46 0 -58 52 -85 87 -44 20 23 43 26 43 6 0 -22 -49 -56 -82 -56 -19 0
-40 10 -59 29 -81 81 25 211 115 140z m6606 14 c0 -16 -63 -198 -71 -207 -21
-23 -16 8 18 107 20 59 40 107 45 107 4 0 8 -3 8 -7z m-1856 -70 c12 -34 24
-64 27 -67 3 -3 15 26 28 64 14 44 28 70 36 70 12 0 11 -8 -4 -47 -10 -27 -24
-65 -30 -85 -20 -62 -42 -50 -74 40 -31 86 -32 95 -15 90 6 -2 21 -32 32 -65z
m760 51 c9 -8 16 -20 16 -25 0 -14 -20 -11 -36 6 -18 17 -24 18 -43 6 -23 -15
-6 -36 38 -50 36 -10 41 -15 41 -41 0 -32 -22 -50 -61 -50 -25 0 -59 26 -59
47 0 19 13 16 33 -7 20 -24 40 -26 57 -5 16 19 7 29 -42 44 -22 7 -40 21 -43
32 -15 46 63 79 99 43z m406 -31 l0 -47 28 27 c38 37 64 36 29 -1 l-27 -28 26
-37 c31 -47 10 -50 -28 -5 l-27 33 -1 -32 c0 -23 -5 -33 -15 -33 -12 0 -15 16
-15 85 0 69 3 85 15 85 11 0 15 -12 15 -47z m810 -7 c0 -34 5 -57 13 -60 10
-5 10 -7 0 -12 -7 -3 -13 -14 -13 -25 0 -10 -7 -19 -15 -19 -8 0 -15 9 -15 20
0 17 -7 20 -40 20 -22 0 -40 3 -40 6 0 14 86 123 98 124 8 0 12 -17 12 -54z
m140 34 c14 -14 20 -33 20 -65 0 -52 -25 -85 -64 -85 -27 0 -65 42 -45 49 7 2
16 -4 21 -13 13 -22 34 -20 52 6 19 26 21 47 4 30 -29 -29 -88 -2 -88 40 0 52
63 75 100 38z m146 3 c20 -20 1 -32 -21 -13 -19 15 -40 7 -55 -20 -11 -20 -10
-21 9 -11 42 23 81 1 81 -46 0 -57 -61 -82 -100 -43 -32 32 -23 117 14 142 19
13 54 9 72 -9z m140 -4 c43 -47 14 -149 -43 -149 -38 0 -63 34 -63 85 0 75 62
112 106 64z m150 4 c20 -20 1 -32 -21 -13 -19 15 -40 7 -55 -20 -11 -20 -10
-21 9 -11 42 23 81 1 81 -46 0 -78 -101 -85 -116 -8 -16 87 49 150 102 98z
m134 -3 c45 -45 15 -150 -42 -150 -22 0 -58 26 -58 42 0 14 28 9 34 -7 11 -30
49 -14 61 25 6 20 5 23 -6 13 -31 -30 -89 -4 -89 39 0 52 63 75 100 38z m150
5 c0 -8 -9 -20 -19 -27 -18 -11 -18 -12 5 -31 28 -22 31 -53 7 -79 -30 -34
-103 -14 -103 28 0 20 9 18 29 -7 13 -16 23 -20 40 -14 31 9 26 59 -6 63 -28
4 -29 10 -1 39 l21 23 -41 0 c-23 0 -42 5 -42 10 0 6 25 10 55 10 42 0 55 -4
55 -15z m140 5 c0 -5 -18 -10 -40 -10 -32 0 -40 -4 -40 -18 0 -15 6 -18 29
-14 21 3 33 -2 45 -19 21 -31 20 -55 -4 -79 -26 -26 -62 -26 -85 0 -23 26 -11
39 14 16 28 -26 61 -13 61 24 0 34 -28 48 -59 28 -27 -17 -31 -10 -24 40 l6
42 48 0 c27 0 49 -4 49 -10z m-2570 -15 c0 -8 7 -15 15 -15 8 0 15 -4 15 -10
0 -5 -7 -10 -15 -10 -11 0 -15 -12 -15 -45 0 -33 4 -45 15 -45 8 0 15 -4 15
-10 0 -16 -47 -11 -54 6 -3 9 -6 33 -6 54 0 21 -6 41 -12 44 -10 5 -10 7 0 12
6 3 12 12 12 20 0 8 7 14 15 14 8 0 15 -7 15 -15z m430 0 c0 -8 7 -15 15 -15
8 0 15 -4 15 -10 0 -5 -7 -10 -15 -10 -11 0 -15 -12 -15 -45 0 -33 4 -45 15
-45 8 0 15 -4 15 -10 0 -16 -47 -11 -54 6 -3 9 -6 33 -6 54 0 21 -6 41 -12 44
-10 5 -10 7 0 12 6 3 12 12 12 20 0 8 7 14 15 14 8 0 15 -7 15 -15z m-638 -32
c10 -9 18 -24 18 -35 0 -15 -8 -18 -45 -18 -47 0 -56 -9 -30 -30 13 -11 20
-11 40 0 31 16 42 8 20 -14 -36 -36 -95 -6 -95 47 0 57 52 86 92 50z m132 1
c18 -17 21 -34 7 -34 -5 0 -14 7 -21 15 -27 32 -67 4 -56 -40 8 -33 32 -42 55
-21 31 28 45 12 15 -18 -35 -36 -94 -6 -94 47 0 57 58 88 94 51z m216 -4 c56
-56 -23 -146 -82 -93 -10 9 -18 30 -18 46 0 60 59 88 100 47z m100 9 c0 -4 -9
-13 -20 -19 -15 -8 -20 -21 -20 -55 0 -33 -4 -45 -15 -45 -12 0 -15 14 -15 64
l0 64 35 0 c19 0 35 -4 35 -9z m330 -9 c56 -56 -23 -146 -82 -93 -10 9 -18 30
-18 46 0 60 59 88 100 47z m124 4 c30 -30 16 -46 -15 -18 -23 21 -47 12 -55
-21 -11 -44 29 -72 56 -40 14 17 30 20 30 6 0 -17 -31 -41 -52 -41 -32 0 -58
29 -58 63 0 57 58 88 94 51z m310 0 c18 -17 21 -34 7 -34 -5 0 -14 7 -21 15
-27 32 -67 4 -56 -40 8 -33 32 -42 55 -21 31 28 45 12 15 -18 -35 -36 -94 -6
-94 47 0 57 58 88 94 51z m137 -5 c37 -37 8 -109 -45 -109 -30 0 -56 30 -56
63 0 61 59 88 101 46z m197 8 c14 -10 17 -117 2 -117 -5 0 -10 20 -10 44 0 51
-20 76 -45 56 -9 -8 -15 -30 -15 -56 0 -62 -18 -55 -22 9 -3 44 -6 52 -23 52
-17 0 -20 -8 -23 -52 -2 -38 -7 -53 -18 -53 -11 0 -14 15 -14 64 l0 64 78 -2
c42 -1 83 -5 90 -9z m-448 -102 c0 -8 -7 -15 -15 -15 -8 0 -15 7 -15 15 0 8 7
15 15 15 8 0 15 -7 15 -15z"/>
<path d="M530 425 c-18 -22 -9 -27 46 -23 46 3 47 4 30 21 -22 21 -59 22 -76
2z"/>
<path d="M1037 422 c-34 -38 -10 -112 36 -112 26 0 47 29 47 65 0 58 -49 85
-83 47z"/>
<path d="M1687 422 c-34 -38 -10 -112 36 -112 26 0 47 29 47 65 0 58 -49 85
-83 47z"/>
<path d="M8646 385 c-21 -31 -20 -35 4 -35 16 0 20 7 20 30 0 36 -3 37 -24 5z"/>
<path d="M8769 424 c-17 -21 0 -49 32 -49 18 0 25 6 27 24 6 38 -34 55 -59 25z"/>
<path d="M8920 375 c-26 -31 13 -82 44 -56 19 16 21 42 4 59 -16 16 -33 15
-48 -3z"/>
<path d="M9060 425 c-18 -22 -17 -83 3 -102 26 -27 51 -6 55 46 5 61 -28 92
-58 56z"/>
<path d="M9210 375 c-26 -31 13 -82 44 -56 19 16 21 42 4 59 -16 16 -33 15
-48 -3z"/>
<path d="M9339 424 c-17 -21 0 -49 32 -49 18 0 25 6 27 24 6 38 -34 55 -59 25z"/>
<path d="M6860 385 c-11 -13 -7 -15 25 -15 32 0 36 2 25 15 -7 8 -18 15 -25
15 -7 0 -18 -7 -25 -15z"/>
<path d="M7199 379 c-13 -25 2 -69 24 -69 19 0 37 21 37 45 0 43 -41 60 -61
24z"/>
<path d="M7630 386 c-15 -19 -9 -56 12 -69 34 -22 66 41 36 71 -16 16 -33 15
-48 -2z"/>
<path d="M8199 379 c-13 -25 2 -69 24 -69 19 0 37 21 37 45 0 43 -41 60 -61
24z"/>
</g>
</svg>
